<svg xmlns="http://www.w3.org/2000/svg" viewBox="0 0 800 450">
  <defs>
    <linearGradient id="bg" x1="0" y1="0" x2="1" y2="1">
      <stop offset="0%" stop-color="#0F172A"/>
      <stop offset="100%" stop-color="#0c4a6e"/>
    </linearGradient>
  </defs>
  <rect width="800" height="450" fill="url(#bg)"/>
  <!-- Boxing glove silhouette (right) -->
  <ellipse cx="660" cy="200" rx="85" ry="95" fill="rgba(255,255,255,0.05)" stroke="rgba(56,189,248,0.2)" stroke-width="3"/>
  <ellipse cx="660" cy="175" rx="65" ry="70" fill="rgba(56,189,248,0.07)"/>
  <rect x="620" y="270" width="80" height="55" rx="12" fill="rgba(255,255,255,0.05)" stroke="rgba(56,189,248,0.15)" stroke-width="2"/>
  <!-- Thumb nub -->
  <ellipse cx="620" cy="195" rx="20" ry="30" fill="rgba(255,255,255,0.04)" stroke="rgba(56,189,248,0.15)" stroke-width="2" transform="rotate(-20,620,195)"/>
  <!-- Lace detail -->
  <line x1="640" y1="270" x2="680" y2="270" stroke="rgba(255,255,255,0.12)" stroke-width="2"/>
  <line x1="638" y1="282" x2="682" y2="282" stroke="rgba(255,255,255,0.09)" stroke-width="2"/>
  <line x1="636" y1="294" x2="684" y2="294" stroke="rgba(255,255,255,0.07)" stroke-width="2"/>
  <!-- Price tag accent -->
  <rect x="490" y="120" width="90" height="32" rx="6" fill="rgba(56,189,248,0.2)" stroke="rgba(56,189,248,0.4)" stroke-width="1.5"/>
  <text x="504" y="141" font-family="Arial,sans-serif" font-size="13" font-weight="700" fill="#38BDF8" letter-spacing="1">SÉLECTION</text>
  <!-- Left bar -->
  <rect x="0" y="0" width="4" height="450" fill="#38BDF8"/>
  <!-- Section name -->
  <text x="62" y="190" font-family="'Arial Black',Impact,sans-serif" font-size="80" font-weight="900" fill="white" opacity="0.95">ÉQUIPE</text>
  <text x="62" y="278" font-family="'Arial Black',Impact,sans-serif" font-size="80" font-weight="900" fill="white" opacity="0.95">MENT</text>
  <text x="66" y="312" font-family="Arial,sans-serif" font-size="16" fill="rgba(255,255,255,0.5)" letter-spacing="7">GANTS · SACS · PROTECTIONS</text>
  <rect x="66" y="330" width="180" height="4" rx="2" fill="#38BDF8"/>
  <text x="66" y="420" font-family="Arial,sans-serif" font-size="12" fill="rgba(255,255,255,0.22)" letter-spacing="5">FIGHTFOCUS.FR</text>
</svg>
