<svg xmlns="http://www.w3.org/2000/svg" viewBox="0 0 800 450">
  <defs>
    <linearGradient id="bg" x1="0" y1="0" x2="1" y2="1">
      <stop offset="0%" stop-color="#0f2027"/>
      <stop offset="100%" stop-color="#1a3a4a"/>
    </linearGradient>
  </defs>
  <rect width="800" height="450" fill="url(#bg)"/>
  <!-- Open book shape -->
  <path d="M490,100 L490,350 Q580,320 650,340 Q720,320 760,350 L760,100 Q720,80 650,100 Q580,80 490,100Z" fill="none" stroke="rgba(255,255,255,0.08)" stroke-width="3"/>
  <line x1="625" y1="100" x2="625" y2="345" stroke="rgba(255,255,255,0.08)" stroke-width="2"/>
  <!-- Book lines (text simulation) -->
  <line x1="505" y1="145" x2="615" y2="140" stroke="rgba(255,255,255,0.1)" stroke-width="2.5"/>
  <line x1="505" y1="168" x2="615" y2="163" stroke="rgba(255,255,255,0.07)" stroke-width="2"/>
  <line x1="505" y1="191" x2="615" y2="186" stroke="rgba(255,255,255,0.07)" stroke-width="2"/>
  <line x1="505" y1="214" x2="600" y2="209" stroke="rgba(255,255,255,0.07)" stroke-width="2"/>
  <line x1="505" y1="237" x2="615" y2="232" stroke="rgba(255,255,255,0.07)" stroke-width="2"/>
  <line x1="505" y1="260" x2="590" y2="255" stroke="rgba(255,255,255,0.07)" stroke-width="2"/>
  <line x1="640" y1="145" x2="748" y2="145" stroke="rgba(255,255,255,0.1)" stroke-width="2.5"/>
  <line x1="640" y1="168" x2="748" y2="168" stroke="rgba(255,255,255,0.07)" stroke-width="2"/>
  <line x1="640" y1="191" x2="730" y2="191" stroke="rgba(255,255,255,0.07)" stroke-width="2"/>
  <line x1="640" y1="214" x2="748" y2="214" stroke="rgba(255,255,255,0.07)" stroke-width="2"/>
  <line x1="640" y1="237" x2="720" y2="237" stroke="rgba(255,255,255,0.07)" stroke-width="2"/>
  <line x1="640" y1="260" x2="748" y2="260" stroke="rgba(255,255,255,0.07)" stroke-width="2"/>
  <!-- Level badges -->
  <rect x="505" y="288" width="95" height="22" rx="11" fill="rgba(16,185,129,0.35)"/>
  <text x="520" y="304" font-family="Arial,sans-serif" font-size="11" fill="white" letter-spacing="2">DÉBUTANT</text>
  <rect x="640" y="288" width="100" height="22" rx="11" fill="rgba(245,158,11,0.35)"/>
  <text x="653" y="304" font-family="Arial,sans-serif" font-size="11" fill="white" letter-spacing="2">AVANCÉ</text>
  <!-- Left accent bar -->
  <rect x="0" y="0" width="4" height="450" fill="#0ea5e9"/>
  <!-- Section name -->
  <text x="62" y="215" font-family="'Arial Black',Impact,sans-serif" font-size="120" font-weight="900" fill="white" opacity="0.95">GUIDES</text>
  <text x="66" y="256" font-family="Arial,sans-serif" font-size="16" fill="rgba(255,255,255,0.5)" letter-spacing="9">TECHNIQUES &amp; CONSEILS</text>
  <rect x="66" y="274" width="145" height="4" rx="2" fill="#0ea5e9"/>
  <text x="66" y="420" font-family="Arial,sans-serif" font-size="12" fill="rgba(255,255,255,0.22)" letter-spacing="5">FIGHTFOCUS.FR</text>
</svg>
